<svg xmlns="http://www.w3.org/2000/svg" width="87.888" height="8.809" viewBox="0 0 87.888 8.809"><defs><style>.a{fill:none;stroke:#44aaac;stroke-width:3px;}</style></defs><g transform="translate(-945.556 -837.857)"><line class="a" x2="8" y2="6.477" transform="translate(946.5 839.023)"/><line class="a" x1="8" y2="6.477" transform="translate(953.5 839.023)"/><line class="a" x2="8" y2="6.477" transform="translate(958.5 839.023)"/><line class="a" x1="8" y2="6.477" transform="translate(965.5 839.023)"/><line class="a" x2="8" y2="6.477" transform="translate(970.5 839.023)"/><line class="a" x1="8" y2="6.477" transform="translate(977.5 839.023)"/><line class="a" x2="8" y2="6.477" transform="translate(982.5 839.023)"/><line class="a" x1="8" y2="6.477" transform="translate(989.5 839.023)"/><line class="a" x2="8" y2="6.477" transform="translate(994.5 839.023)"/><line class="a" x1="8" y2="6.477" transform="translate(1001.5 839.023)"/><line class="a" x2="8" y2="6.477" transform="translate(1005.5 839.023)"/><line class="a" x1="8" y2="6.477" transform="translate(1012.5 839.023)"/><line class="a" x2="8" y2="6.477" transform="translate(1017.5 839.023)"/><line class="a" x1="8" y2="6.477" transform="translate(1024.5 839.023)"/></g></svg>