<?xml version="1.0" encoding="UTF-8"?>
<svg xmlns="http://www.w3.org/2000/svg" xmlns:xlink="http://www.w3.org/1999/xlink" width="128pt" height="128pt" viewBox="0 0 128 128" version="1.1">
<g id="surface2575208">
<path style=" stroke:none;fill-rule:nonzero;fill:rgb(0%,0%,0%);fill-opacity:1;" d="M 67.480469 4.121094 C 65.21875 4.121094 62.980469 4.679688 60.980469 5.71875 C 60.980469 5.71875 59.339844 6.480469 58.980469 6.660156 L 40.21875 16.039062 C 39.257812 16.519531 38.382812 17.136719 37.621094 17.898438 L 17.660156 37.878906 C 17.019531 38.5 16.480469 39.21875 16.039062 39.980469 L 6.058594 57.621094 C 4.757812 59.800781 4.058594 62.28125 4.058594 64.820312 L 4.195312 91.824219 C 4.097656 93.488281 4.09375 95.105469 4.21875 96.660156 C 4.277344 97.480469 4.378906 98.300781 4.480469 99.101562 C 4.820312 101.242188 5.378906 103.21875 6.140625 105.058594 C 6.378906 105.617188 6.640625 106.160156 6.921875 106.699219 C 7.863281 108.5 9.039062 110.136719 10.480469 111.578125 C 11.007812 112.105469 11.5625 112.601562 12.140625 113.0625 C 12.480469 113.332031 12.839844 113.570312 13.195312 113.816406 C 13.449219 113.992188 13.683594 114.183594 13.945312 114.347656 C 14.460938 114.671875 15.003906 114.960938 15.550781 115.242188 C 15.667969 115.300781 15.777344 115.378906 15.898438 115.4375 C 16.539062 115.75 17.203125 116.027344 17.886719 116.285156 C 17.921875 116.300781 17.957031 116.316406 17.996094 116.332031 C 20.894531 117.402344 24.195312 117.953125 27.859375 117.984375 C 27.878906 117.988281 27.886719 117.996094 27.90625 117.996094 C 27.9375 118 27.96875 118 28 118 C 28.015625 118 28.023438 117.992188 28.039062 117.992188 C 28.09375 117.992188 28.144531 118 28.199219 118 C 28.9375 118 29.683594 117.980469 30.421875 117.921875 C 31.34375 117.882812 32.257812 117.800781 33.199219 117.699219 L 33.238281 117.699219 L 111 113.820312 C 113.078125 113.71875 114.722656 112.058594 114.800781 109.980469 L 117.78125 32.578125 C 117.800781 32.4375 117.941406 28.640625 117.941406 28.300781 C 117.941406 26.785156 117.816406 25.339844 117.628906 23.933594 C 117.542969 23.203125 117.441406 22.480469 117.300781 21.78125 C 117.28125 21.78125 117.28125 21.757812 117.300781 21.738281 C 116.878906 19.71875 116.261719 17.839844 115.441406 16.121094 C 114.441406 14.042969 113.140625 12.160156 111.519531 10.539062 C 107.257812 6.277344 101.300781 4.121094 93.800781 4.121094 Z M 70.238281 8.121094 L 87.339844 8.121094 L 86.738281 8.78125 L 80.121094 15.867188 C 79.378906 14.636719 78.390625 13.535156 77.140625 12.699219 L 75.820312 11.820312 L 71.78125 9.140625 L 71.761719 9.140625 Z M 93.800781 8.121094 C 100.199219 8.121094 105.199219 9.878906 108.699219 13.359375 C 109.160156 13.820312 109.582031 14.300781 109.980469 14.820312 C 112.640625 18.257812 113.957031 22.949219 113.917969 28.582031 L 75.367188 41.316406 L 81.078125 24.179688 C 81.535156 22.808594 81.648438 21.394531 81.507812 20.015625 L 92.320312 23.839844 C 92.539062 23.917969 92.761719 23.960938 92.980469 23.960938 C 93.800781 23.960938 94.578125 23.441406 94.878906 22.621094 C 95.238281 21.582031 94.699219 20.4375 93.660156 20.078125 L 84.640625 16.878906 L 92.78125 8.140625 C 93.121094 8.121094 93.460938 8.121094 93.800781 8.121094 Z M 63.441406 9.601562 C 64.621094 9.601562 65.78125 9.941406 66.78125 10.601562 L 67.5 11.078125 L 71.359375 13.660156 L 74.921875 16.019531 C 77.160156 17.519531 78.140625 20.363281 77.28125 22.921875 L 70.980469 41.800781 C 70.640625 42.800781 70.0625 43.699219 69.28125 44.398438 L 44.78125 66.160156 C 44.019531 66.839844 43.101562 67.320312 42.101562 67.539062 L 22.101562 71.980469 C 19.839844 72.480469 17.5625 71.660156 16.121094 69.878906 L 14.960938 68.421875 L 12.300781 65.101562 L 12.28125 65.078125 L 11.339844 63.898438 C 10.460938 62.820312 10.019531 61.5 10.019531 60.160156 C 10.019531 59.5 10.121094 58.859375 10.359375 58.21875 C 10.460938 57.859375 10.621094 57.519531 10.820312 57.179688 L 19.519531 41.960938 C 19.78125 41.5 20.101562 41.078125 20.480469 40.699219 L 40.441406 20.738281 C 40.902344 20.277344 41.441406 19.902344 42 19.601562 L 60.761719 10.21875 C 61.0625 10.078125 61.359375 9.960938 61.679688 9.859375 C 62.257812 9.679688 62.863281 9.601562 63.441406 9.601562 Z M 100.621094 22.703125 C 99.84375 22.75 99.128906 23.25 98.851562 24.03125 C 98.484375 25.074219 99.027344 26.214844 100.070312 26.585938 L 104.964844 28.320312 C 105.183594 28.398438 105.410156 28.4375 105.632812 28.4375 C 106.457031 28.4375 107.226562 27.921875 107.519531 27.101562 C 107.886719 26.0625 107.339844 24.917969 106.300781 24.546875 L 101.40625 22.8125 C 101.144531 22.71875 100.878906 22.6875 100.621094 22.703125 Z M 113.746094 32.847656 C 113.753906 32.902344 113.746094 32.96875 113.757812 33.019531 L 113.738281 33.539062 C 111.769531 48.121094 101.691406 66.628906 85.605469 83.132812 C 85.59375 83.085938 85.601562 83.035156 85.585938 82.988281 L 80.484375 65.609375 C 80.171875 64.550781 79.0625 63.9375 78.003906 64.253906 C 76.945312 64.5625 76.335938 65.675781 76.648438 66.734375 L 80.625 80.292969 L 48.382812 68.320312 L 71.941406 47.378906 C 72.304688 47.054688 72.636719 46.699219 72.945312 46.328125 Z M 113.121094 49.621094 L 110.800781 109.820312 L 50.558594 112.839844 C 62.796875 107.660156 75.679688 98.78125 87.199219 87.261719 C 99.238281 75.222656 108.101562 61.960938 113.121094 49.621094 Z M 74.691406 50.199219 C 74.433594 50.167969 74.167969 50.191406 73.902344 50.269531 C 72.84375 50.578125 72.238281 51.691406 72.546875 52.75 L 74.035156 57.828125 C 74.292969 58.699219 75.085938 59.265625 75.953125 59.265625 C 76.140625 59.265625 76.328125 59.238281 76.515625 59.183594 C 77.574219 58.875 78.179688 57.761719 77.871094 56.703125 L 76.382812 51.625 C 76.148438 50.828125 75.464844 50.289062 74.691406 50.199219 Z M 8.058594 66.179688 C 8.097656 66.257812 8.160156 66.320312 8.21875 66.398438 L 10.359375 69.058594 L 12.980469 72.359375 C 13 72.398438 13.039062 72.441406 13.058594 72.460938 C 13.890625 73.472656 14.886719 74.277344 15.980469 74.878906 C 15.972656 75.058594 25.417969 113.867188 25.417969 113.867188 C 23.664062 113.714844 22.042969 113.398438 20.535156 112.945312 C 20.367188 112.894531 20.195312 112.847656 20.03125 112.792969 C 19.679688 112.675781 19.34375 112.546875 19.003906 112.414062 C 18.769531 112.320312 18.527344 112.226562 18.296875 112.125 C 18.007812 111.996094 17.726562 111.863281 17.449219 111.722656 C 17.179688 111.585938 16.917969 111.445312 16.660156 111.296875 C 16.425781 111.164062 16.195312 111.027344 15.96875 110.882812 C 15.667969 110.6875 15.375 110.480469 15.089844 110.269531 C 14.917969 110.144531 14.742188 110.023438 14.578125 109.894531 C 14.132812 109.539062 13.703125 109.164062 13.296875 108.761719 C 9.140625 104.578125 7.460938 98.421875 8 91.101562 L 15.058594 80.5 C 15.679688 79.578125 15.441406 78.339844 14.519531 77.738281 C 13.597656 77.117188 12.359375 77.359375 11.738281 78.28125 L 9.898438 81.019531 L 9.898438 81.058594 L 8.058594 83.800781 Z M 44.261719 71.054688 L 82.96875 85.429688 C 83.066406 85.464844 83.167969 85.457031 83.265625 85.480469 C 66.832031 101.550781 47.898438 112.054688 32.5 113.738281 L 32.179688 113.761719 C 32.007812 113.78125 31.855469 113.789062 31.691406 113.804688 C 31.566406 113.816406 31.4375 113.828125 31.316406 113.835938 C 31.160156 113.851562 31.003906 113.859375 30.847656 113.875 L 38.929688 90.390625 C 39.289062 89.347656 38.734375 88.210938 37.6875 87.851562 C 36.644531 87.488281 35.503906 88.046875 35.144531 89.09375 L 28.324219 108.914062 L 20.285156 76.09375 C 20.441406 76.101562 20.601562 76.121094 20.761719 76.121094 C 21.5 76.121094 22.242188 76.039062 22.960938 75.878906 L 42.980469 71.441406 C 43.417969 71.339844 43.84375 71.207031 44.261719 71.054688 Z M 91.808594 87.980469 C 91.296875 87.980469 90.785156 88.175781 90.394531 88.566406 L 87.566406 91.394531 C 86.785156 92.175781 86.785156 93.441406 87.566406 94.222656 C 87.957031 94.613281 88.46875 94.808594 88.980469 94.808594 C 89.492188 94.808594 90.003906 94.613281 90.394531 94.222656 L 93.222656 91.394531 C 94.003906 90.613281 94.003906 89.347656 93.222656 88.566406 C 92.832031 88.175781 92.320312 87.980469 91.808594 87.980469 Z M 98.878906 95.046875 C 98.367188 95.046875 97.855469 95.242188 97.464844 95.632812 L 94.636719 98.464844 C 93.855469 99.246094 93.855469 100.511719 94.636719 101.292969 C 95.027344 101.683594 95.539062 101.878906 96.050781 101.878906 C 96.5625 101.878906 97.074219 101.683594 97.464844 101.292969 L 100.292969 98.460938 C 101.074219 97.679688 101.074219 96.414062 100.292969 95.632812 C 99.902344 95.242188 99.390625 95.046875 98.878906 95.046875 Z M 105.953125 102.121094 C 105.441406 102.121094 104.929688 102.316406 104.539062 102.707031 L 101.707031 105.535156 C 100.925781 106.316406 100.925781 107.582031 101.707031 108.363281 C 102.097656 108.753906 102.609375 108.949219 103.121094 108.949219 C 103.632812 108.949219 104.144531 108.753906 104.535156 108.363281 L 107.367188 105.535156 C 108.148438 104.753906 108.148438 103.488281 107.367188 102.707031 C 106.976562 102.316406 106.464844 102.121094 105.953125 102.121094 Z M 105.953125 102.121094 "/>
</g>
</svg>
